<?xml version="1.0" encoding="utf-8"?>
<!-- Generator: Adobe Illustrator 16.0.0, SVG Export Plug-In . SVG Version: 6.00 Build 0)  -->
<!DOCTYPE svg PUBLIC "-//W3C//DTD SVG 1.1//EN" "http://www.w3.org/Graphics/SVG/1.1/DTD/svg11.dtd">
<svg version="1.1" id="Layer_1" xmlns="http://www.w3.org/2000/svg" xmlns:xlink="http://www.w3.org/1999/xlink" x="0px" y="0px"
	 width="936px" height="844px" viewBox="49.9 44.324 936 844" enable-background="new 49.9 44.324 936 844" xml:space="preserve">
<path fill="#F4F4F4" d="M967.799,206.229c-23.271-58.363-69.962-107.443-134.562-137.833
	c-57.104-26.874-118.627-30.104-174.55-13.682c-55.908,16.417-106.18,61.166-140.812,112.896
	c-34.62-51.73-84.9-96.479-140.8-112.896c-55.906-16.423-117.446-13.192-174.548,13.682
	C137.934,98.779,91.243,147.866,67.962,206.229c-23.269,58.358-23.372,126.117,5.958,193.505
	c62.747,144.135,441.969,482.438,443.956,488.219c1.987-5.781,381.22-344.084,443.954-488.219
	C991.183,332.336,991.071,264.588,967.799,206.229z"/>
</svg>
